# Blender v2.79 (sub 0) OBJ File: ''
# www.blender.org
mtllib BALLESTA.mtl
o Cube.002_Cube.001
v 0.471080 0.284772 -0.090947
v 0.471080 0.284772 0.060796
v 0.776162 0.135301 0.060796
v 0.776162 0.135301 -0.090947
v 0.776162 0.026392 0.060796
v 0.776162 0.026392 -0.090947
v 0.466934 0.198070 -0.090947
v 0.466934 0.198070 0.060796
v 0.081111 -0.405938 0.060796
v 0.081111 -0.405938 -0.021923
v 0.244182 0.446518 -0.080194
v 0.244182 0.446518 0.060796
v 0.383912 0.245912 0.060796
v 0.244182 0.337609 0.060796
v 0.027598 0.446518 0.060796
v 0.027598 0.337609 0.060796
v -0.225920 0.446518 0.060796
v -0.225920 0.337609 0.060796
v -0.365375 0.258286 0.060796
v -0.463596 0.300709 0.060796
v -0.767511 0.135301 0.060796
v -0.767511 0.026392 0.060796
v -0.440620 0.203294 0.060796
v -0.064068 -0.404336 0.059373
v 0.010667 -0.384895 0.060796
v 0.383912 0.245912 -0.090947
v 0.244182 0.337609 -0.080194
v 0.027598 0.446518 -0.001806
v 0.024048 0.337868 -0.001806
v -0.225920 0.337609 -0.080542
v -0.225920 0.446518 -0.080542
v -0.365375 0.258286 -0.090947
v -0.463596 0.284772 -0.090947
v -0.767511 0.026392 -0.090947
v -0.767511 0.135301 -0.090947
v -0.440620 0.203294 -0.090947
v 0.010667 -0.384895 -0.021923
v -0.064068 -0.404336 -0.023346
v 0.039796 -1.097155 -0.021923
v 0.039796 -1.097155 0.060797
v -0.060465 -1.095556 0.059373
v -0.060465 -1.095556 -0.023346
v -0.046159 -0.426423 0.059373
v 0.054103 -0.427167 0.060796
v 0.053393 -0.502622 0.156041
v -0.046872 -0.501878 0.154618
v -0.045387 -0.404750 0.154618
v 0.054875 -0.406349 0.156041
vt 0.447545 0.768792
vt 0.503022 0.676399
vt 0.620785 0.782348
vt 0.649828 0.864629
vt 0.643030 0.773171
vt 0.711061 0.798485
vt 0.642253 0.633963
vt 0.551792 0.646522
vt 0.633857 0.247362
vt 0.665475 0.257030
vt 0.275127 0.672435
vt 0.322391 0.601580
vt 0.494461 0.617005
vt 0.368176 0.563966
vt 0.246128 0.515722
vt 0.293274 0.479775
vt 0.176292 0.405743
vt 0.219047 0.372311
vt 0.200546 0.250616
vt 0.137822 0.230535
vt 0.067413 0.097670
vt 0.084283 0.081034
vt 0.190665 0.192500
vt 0.590806 0.190778
vt 0.604978 0.226206
vt 0.897914 0.911736
vt 0.923452 0.957735
vt 0.752590 0.957736
vt 0.706307 0.956997
vt 0.734011 0.920144
vt 0.479147 0.956937
vt 0.455799 0.996693
vt 0.374953 0.999795
vt 0.344436 0.956937
vt 0.446312 0.506496
vt 0.392879 0.503882
vt 0.128446 0.935591
vt 0.126809 0.988080
vt 0.000205 0.988206
vt 0.000205 0.935593
vt 0.216002 0.538998
vt 0.100002 0.434258
vt 0.927167 0.113033
vt 0.874555 0.113090
vt 0.874555 0.000205
vt 0.927047 0.001763
vt 0.315735 0.460096
vt 0.288142 0.361663
vt 0.291896 0.320032
vt 0.042876 0.256841
vt 0.267831 0.935591
vt 0.238281 0.979121
vt 0.160865 0.972882
vt 0.128857 0.935591
vt 0.058415 0.000205
vt 0.000205 0.060963
vt 0.889555 0.871411
vt 0.925195 0.905247
vt 0.880583 0.911311
vt 0.701026 0.911311
vt 0.726066 0.865039
vt 0.220007 0.106635
vt 0.700083 0.865039
vt 0.700615 0.911326
vt 0.352978 0.899513
vt 0.344436 0.865039
vt 0.560724 0.261358
vt 0.584891 0.156599
vt 0.701329 0.911736
vt 0.705896 0.956527
vt 0.344436 0.956527
vt 0.354571 0.920618
vt 0.874144 0.057829
vt 0.817498 0.068305
vt 0.803691 0.045112
vt 0.816284 0.000205
vt 0.344025 0.900994
vt 0.334398 0.935180
vt 0.000205 0.920551
vt 0.000205 0.872105
vt 0.334053 0.865039
vt 0.874556 0.160698
vt 0.922995 0.161177
vt 0.922995 0.219879
vt 0.874555 0.219400
vt 0.604506 0.189883
vt 0.921331 0.274746
vt 0.920567 0.288461
vt 0.874555 0.324913
vt 0.874555 0.277987
vt 0.874555 0.325324
vt 0.922996 0.325705
vt 0.923001 0.372218
vt 0.874555 0.372250
vt 0.635373 0.231935
vt 0.904417 0.223797
vt 0.920637 0.220289
vt 0.920637 0.268015
vt 0.874555 0.274335
vt 0.874555 0.159077
vt 0.885570 0.113500
vt 0.934016 0.113501
vt 0.947350 0.159326
vt 0.911846 0.160288
vn 0.4400 0.8980 0.0000
vn 1.0000 -0.0000 0.0000
vn 0.8427 -0.5383 -0.0000
vn 0.5805 0.8143 0.0000
vn -0.0000 -0.0000 1.0000
vn -0.0049 -0.0035 1.0000
vn -0.0055 -0.0038 1.0000
vn -0.0069 -0.0053 1.0000
vn -0.0000 0.0000 -1.0000
vn -0.0416 0.0246 -0.9988
vn -0.5487 -0.8360 -0.0000
vn -0.5487 -0.8361 -0.0000
vn 0.2985 -0.0049 -0.9544
vn 0.0000 1.0000 0.0000
vn -0.3379 0.0055 -0.9412
vn -0.0007 -1.0000 -0.0010
vn -0.0008 -1.0000 -0.0013
vn -0.0001 -1.0000 -0.0014
vn -0.0000 -1.0000 -0.0013
vn 0.0007 -1.0000 -0.0013
vn 0.4944 -0.8692 -0.0000
vn -0.5419 0.8392 -0.0456
vn 0.0377 0.0273 -0.9989
vn -1.0000 0.0000 0.0000
vn -0.4595 0.8870 -0.0466
vn -0.4854 -0.8743 -0.0000
vn 0.4759 -0.8795 -0.0000
vn -0.0391 -0.0872 -0.9954
vn -0.8606 0.5092 0.0000
vn 0.8633 0.5047 0.0000
vn -0.8500 -0.5268 -0.0000
vn 0.0488 -0.0794 -0.9956
vn -0.0159 -0.9999 0.0000
vn 0.0117 0.0003 -0.9999
vn 0.0116 0.0003 -0.9999
vn 0.0030 -0.7838 -0.6210
vn -0.9943 -0.0052 0.1069
vn -0.9899 -0.1364 0.0391
vn -0.0142 0.0002 0.9999
vn 0.9864 -0.0590 0.1535
vn 0.9709 -0.2354 0.0436
vn -0.0142 0.0003 0.9999
vn 0.0117 0.9914 0.1301
usemtl DefaultMaterial.006
s 1
f 1/1/1 2/2/1 3/3/1
f 3/3/1 4/4/1 1/1/1
f 4/4/2 3/3/2 5/5/2
f 5/5/2 6/6/2 4/4/2
f 7/7/3 8/8/3 9/9/3
f 9/9/3 10/10/3 7/7/3
f 2/2/4 1/1/4 11/11/4
f 11/11/4 12/12/4 2/2/4
f 5/5/5 3/3/5 2/2/5
f 5/5/5 2/2/5 13/13/5
f 13/13/5 8/8/5 5/5/5
f 14/14/5 12/12/5 15/15/5
f 15/15/5 16/16/5 14/14/5
f 13/13/5 2/2/5 12/12/5
f 12/12/5 14/14/5 13/13/5
f 16/16/5 15/15/5 17/17/5
f 17/17/5 18/18/5 16/16/5
f 19/19/6 20/20/5 21/21/5
f 19/19/6 21/21/5 22/22/5
f 22/22/5 23/23/7 19/19/6
f 18/18/5 17/17/5 20/20/5
f 20/20/5 19/19/6 18/18/5
f 19/19/6 23/23/7 24/24/8
f 24/24/8 25/25/8 19/19/6
f 8/8/5 13/13/5 25/25/5
f 25/25/5 9/9/5 8/8/5
f 4/26/9 6/27/9 7/28/9
f 4/26/9 7/28/9 26/29/9
f 26/29/9 1/30/9 4/26/9
f 1/31/10 26/32/10 27/33/10
f 27/33/10 11/34/10 1/31/10
f 26/35/11 13/13/11 14/14/12
f 14/14/12 27/36/11 26/35/11
f 28/37/13 29/38/13 30/39/13
f 30/39/13 31/40/13 28/37/13
f 12/12/14 11/11/14 28/41/14
f 28/41/14 15/15/14 12/12/14
f 15/15/14 28/41/14 31/42/14
f 31/42/14 17/17/14 15/15/14
f 11/43/15 27/44/15 29/45/15
f 29/45/15 28/46/15 11/43/15
f 27/36/16 14/14/17 16/16/18
f 16/16/18 29/47/19 27/36/16
f 29/47/19 16/16/18 18/18/20
f 18/18/20 30/48/20 29/47/19
f 30/48/21 18/18/21 19/19/21
f 19/19/21 32/49/21 30/48/21
f 17/17/22 31/42/22 33/50/22
f 33/50/22 20/20/22 17/17/22
f 31/51/23 30/52/23 32/53/23
f 32/53/23 33/54/23 31/51/23
f 34/55/24 22/22/24 21/21/24
f 21/21/24 35/56/24 34/55/24
f 20/20/25 33/50/25 35/56/25
f 35/56/25 21/21/25 20/20/25
f 33/57/9 32/58/9 36/59/9
f 33/57/9 36/59/9 34/60/9
f 34/60/9 35/61/9 33/57/9
f 6/6/26 5/5/26 8/8/26
f 8/8/26 7/7/26 6/6/26
f 23/23/27 22/22/27 34/55/27
f 34/55/27 36/62/27 23/23/27
f 26/63/28 7/64/28 10/65/28
f 10/65/28 37/66/28 26/63/28
f 13/13/29 26/35/29 37/67/29
f 37/67/29 25/25/29 13/13/29
f 32/49/30 19/19/30 25/25/30
f 25/25/30 37/67/30 32/49/30
f 23/23/31 36/62/31 38/68/31
f 38/68/31 24/24/31 23/23/31
f 36/69/32 32/70/32 37/71/32
f 37/71/32 38/72/32 36/69/32
f 39/73/33 40/74/33 41/75/33
f 41/75/33 42/76/33 39/73/33
f 37/77/34 10/78/35 39/79/34
f 37/77/34 39/79/34 42/80/34
f 42/80/34 38/81/35 37/77/34
f 43/82/36 44/83/36 45/84/36
f 45/84/36 46/85/36 43/82/36
f 42/76/37 41/75/37 43/86/37
f 42/76/37 43/86/37 24/24/37
f 24/24/37 38/68/37 42/76/37
f 24/87/38 43/88/38 46/89/38
f 46/89/38 47/90/38 24/87/38
f 46/91/39 45/92/39 48/93/39
f 48/93/39 47/94/39 46/91/39
f 10/10/40 9/9/40 44/95/40
f 10/10/40 44/95/40 40/74/40
f 40/74/40 39/73/40 10/10/40
f 44/96/41 9/97/41 48/98/41
f 48/98/41 45/99/41 44/96/41
f 43/86/42 41/75/42 40/74/42
f 40/74/42 44/95/42 43/86/42
f 24/100/43 47/101/43 48/102/43
f 48/102/43 9/103/43 25/104/43
f 48/102/43 25/104/43 24/100/43
