# Blender v2.79 (sub 0) OBJ File: ''
# www.blender.org
mtllib CASA.mtl
o Cube.001_Cube.001
v -0.107792 1.880478 -2.060182
v -1.852183 1.664409 -0.585642
v 1.861707 1.664409 -0.585642
v 0.127176 1.905005 -2.029543
v 1.040997 1.420364 -1.227651
v 1.323707 1.383763 -0.992273
v 0.117314 -1.811304 -2.107832
v 1.831537 -1.686863 -0.621899
v -1.820133 -1.682791 -0.632038
v -0.107792 -1.811304 -2.107832
v -0.738225 0.033956 -1.752447
v -0.107792 2.041825 -2.058100
v -0.107792 2.044772 -2.286421
v -0.107792 -1.955534 -2.288519
v -0.107792 -1.957841 -2.109724
v 0.117314 -1.955534 -2.288519
v 0.117314 -1.957841 -2.109724
v 0.117314 2.041825 -2.058100
v 0.117314 2.044557 -2.269762
v 1.741027 -1.706858 -0.370557
v 1.566937 -1.613061 0.633682
v -1.517493 -1.637970 0.673734
v -1.723973 -1.690073 -0.411106
v 1.568117 -1.691599 1.596911
v -1.558593 -1.692487 1.665675
v 1.637557 -1.751457 0.645602
v 1.788297 -1.836502 -0.388934
v -1.707873 1.586818 0.687750
v -1.612983 1.532427 0.674282
v -1.679283 1.545919 1.642719
v -1.774163 1.640490 1.651021
v -1.587143 -1.707840 0.646165
v -1.639613 -1.796054 1.612854
v -1.653483 1.760534 1.667711
v -1.558593 1.665610 1.687598
v -1.492303 1.633798 0.675591
v -1.587183 1.707058 0.689301
v -1.774113 -1.665761 1.582443
v -1.679283 -1.571462 1.607152
v -1.643363 -1.504620 0.635082
v -1.707823 -1.587590 0.647717
v 1.783637 -1.665383 1.553236
v 1.688797 -1.570605 1.540758
v 1.662957 -1.785633 1.551684
v 1.815277 1.821047 -0.387655
v 1.741027 1.750890 -0.366692
v 1.501827 1.612570 0.675317
v 1.596707 1.707058 0.689301
v -1.805813 -1.568813 -0.409541
v -1.844083 1.640065 -0.391791
v 1.758237 -1.631206 0.647154
v 1.974767 -1.684646 -0.393845
v 1.687617 -1.543557 0.634579
v 1.861707 -1.637394 -0.389748
v -1.953833 -1.651235 -0.398356
v -1.775303 -1.828109 -0.409211
v -1.779013 1.864518 -0.376598
v -1.972993 1.689736 -0.367539
v -1.731503 1.750619 -0.345702
v 1.670987 1.608816 0.688034
v 1.663007 1.760879 1.640983
v 1.784947 1.640598 1.640301
v 1.974797 1.693883 -0.356459
v 1.568117 1.666276 1.635972
v 1.691027 1.546040 1.632570
v -0.293779 1.626729 0.675500
v 0.289906 1.619650 0.675408
v -0.315877 1.665832 1.670389
v 1.586407 1.531964 0.680660
v 1.861707 1.646571 -0.358864
v 1.992987 1.664409 -0.585642
v 1.861577 1.758384 -0.562205
v -1.820423 -1.796778 -0.639860
v 1.831247 -1.801522 -0.576958
v -1.824323 1.807626 -0.561235
v -2.007013 1.713346 -0.574222
v -1.974953 -1.684550 -0.621273
v -0.315434 1.753113 1.665415
v 0.312002 1.666054 1.653181
v 0.312445 1.753336 1.648206
v 0.290347 1.706941 0.670435
v -0.293336 1.714010 0.670528
v 1.299767 0.875607 -2.122066
v 1.323707 0.915258 -0.955289
v 1.039387 0.885596 -1.196460
v 0.947155 0.836018 -2.204203
v 0.949149 1.498536 -2.189523
v 1.299767 1.455945 -2.114576
v -1.363773 -0.454561 -0.755504
v -1.558833 0.035145 -1.860111
v -1.363773 0.502185 -0.743154
v 1.992987 -1.629998 -0.575393
vt 0.689024 0.591984
vt 0.513956 0.514871
vt 0.877670 0.524873
vt 0.703998 0.585492
vt 0.787325 0.586169
vt 0.819500 0.578119
vt 0.713576 0.791704
vt 0.909779 0.876580
vt 0.518047 0.876580
vt 0.698266 0.787529
vt 0.648453 0.688529
vt 0.827232 0.300606
vt 0.824654 0.093751
vt 0.824654 0.000242
vt 0.845460 0.037309
vt 0.839338 0.301058
vt 0.834203 0.313101
vt 0.853238 0.302575
vt 0.858653 0.314408
vt 0.550127 0.484837
vt 0.550127 0.473614
vt 0.567366 0.473614
vt 0.567366 0.484837
vt 0.872457 0.018947
vt 0.864140 0.033331
vt 0.549468 0.473614
vt 0.549642 0.485970
vt 0.531474 0.484317
vt 0.532230 0.473614
vt 0.884481 0.028408
vt 0.870269 0.302891
vt 0.323573 0.497618
vt 0.293637 0.410932
vt 0.457204 0.264270
vt 0.528696 0.274313
vt 0.000242 0.762966
vt 0.068125 0.750433
vt 0.239936 0.909099
vt 0.230476 0.996964
vt 0.286898 0.421896
vt 0.310591 0.506071
vt 0.511385 0.746050
vt 0.513471 0.754228
vt 0.440332 0.757088
vt 0.447953 0.749299
vt 0.242589 0.999758
vt 0.245823 0.919168
vt 0.445628 0.744057
vt 0.436221 0.740176
vt 0.507751 0.718594
vt 0.508623 0.727813
vt 0.253863 0.920429
vt 0.261286 0.906848
vt 0.274708 0.999058
vt 0.264544 0.998342
vt 0.059005 0.739861
vt 0.068351 0.733833
vt 0.059687 0.745841
vt 0.000242 0.270581
vt 0.007595 0.257662
vt 0.120205 0.272492
vt 0.112884 0.277913
vt 0.524330 0.226255
vt 0.458126 0.249098
vt 0.327052 0.114036
vt 0.349577 0.006651
vt 0.000965 0.748138
vt 0.001432 0.731809
vt 0.274288 0.424703
vt 0.287577 0.514386
vt 0.001452 0.723500
vt 0.276158 0.513426
vt 0.265272 0.424216
vt 0.529720 0.239757
vt 0.530989 0.262202
vt 0.464305 0.260429
vt 0.463248 0.252850
vt 0.322069 0.097832
vt 0.308578 0.098240
vt 0.298578 0.000242
vt 0.333483 0.002156
vt 0.301031 0.119700
vt 0.285067 0.008275
vt 0.215252 0.515685
vt 0.227318 0.515984
vt 0.224242 0.575972
vt 0.218922 0.575217
vt 0.000242 0.300987
vt 0.111258 0.289096
vt 0.236999 0.514871
vt 0.230455 0.584286
vt 0.212510 0.584717
vt 0.233863 0.173889
vt 0.197392 0.203256
vt 0.352548 0.677539
vt 0.414999 0.607927
vt 0.128811 0.297720
vt 0.006359 0.316721
vt 0.206853 0.514871
vt 0.821744 0.336944
vt 0.808342 0.360151
vt 0.793501 0.341770
vt 0.803622 0.333639
vt 0.531474 0.327100
vt 0.531474 0.028876
vt 0.552910 0.035495
vt 0.547955 0.323562
vt 0.795022 0.332007
vt 0.794285 0.027313
vt 0.806715 0.026658
vt 0.795834 0.015791
vt 0.806585 0.000242
vt 0.824169 0.023916
vt 0.551126 0.005312
vt 0.562465 0.025555
vt 0.562025 0.036395
vt 0.557994 0.322701
vt 0.351358 0.668869
vt 0.305720 0.641693
vt 0.316738 0.638647
vt 0.357244 0.575403
vt 0.398579 0.610811
vt 0.354236 0.560992
vt 0.779163 0.437813
vt 0.689832 0.433809
vt 0.709751 0.413229
vt 0.787311 0.411139
vt 0.832012 0.618535
vt 0.800491 0.626617
vt 0.709006 0.372214
vt 0.782334 0.360635
vt 0.880448 0.387507
vt 0.806420 0.381957
vt 0.787795 0.360635
vt 0.873937 0.360635
vt 0.775095 0.482072
vt 0.689832 0.469798
vt 0.815276 0.391043
vt 0.815496 0.435489
vt 0.787796 0.438740
vt 0.787795 0.387992
vt 0.806742 0.494323
vt 0.803005 0.503321
vt 0.537100 0.499991
vt 0.531474 0.494323
vt 0.689347 0.360637
vt 0.578739 0.473129
vt 0.608146 0.394671
vt 0.561165 0.732055
vt 0.563805 0.645974
vt 0.531474 0.360635
vt 0.548329 0.347954
vt 0.561279 0.334914
vt 0.896858 0.000242
vt 0.905519 0.003867
vt 0.905521 0.255363
vt 0.896858 0.258984
vt 0.531474 0.514386
vt 0.535105 0.504363
vt 0.800471 0.503805
vt 0.804376 0.514386
vt 0.896373 0.256105
vt 0.884965 0.249866
vt 0.886355 0.004118
vt 0.896373 0.000242
vn -0.0073 0.9880 0.1546
vn -0.0073 0.9879 0.1546
vn 0.6300 -0.0890 -0.7715
vn 0.6300 -0.0888 -0.7715
vn 0.6300 -0.0895 -0.7714
vn -0.0012 -0.9964 0.0852
vn -0.0013 -0.9964 0.0850
vn -0.0012 -0.9964 0.0851
vn -0.0013 -0.9964 0.0851
vn -0.4655 0.0114 -0.8850
vn -1.0000 0.0000 0.0000
vn -0.9989 -0.0057 0.0471
vn 0.0000 -0.9999 -0.0129
vn 0.0000 -0.0129 0.9999
vn 0.0000 0.9999 0.0129
vn 0.0370 0.0026 -0.9993
vn -0.0708 0.0859 0.9938
vn 0.9997 0.0003 -0.0226
vn 0.9978 0.0002 -0.0664
vn 0.0012 -0.9976 0.0696
vn 0.0030 -0.9977 -0.0679
vn -0.9108 -0.3979 -0.1102
vn -0.6184 -0.7857 -0.0151
vn -0.6184 -0.7857 -0.0152
vn 0.7575 -0.6527 -0.0114
vn 0.6630 0.7485 0.0121
vn -0.7441 0.6679 0.0109
vn -0.7441 0.6680 0.0109
vn -0.7442 0.6679 0.0109
vn 0.1955 0.0264 0.9803
vn 0.1955 0.0263 0.9803
vn -0.6974 0.7137 -0.0657
vn -0.6974 0.7136 -0.0657
vn -0.6975 0.7136 -0.0657
vn -0.9831 -0.0029 0.1832
vn -0.9831 -0.0029 0.1833
vn 0.7054 -0.7073 -0.0465
vn 0.6550 -0.7374 0.1651
vn 0.7399 0.6726 0.0114
vn 0.7399 0.6726 0.0119
vn 0.7399 0.6726 0.0115
vn -0.8160 -0.5776 -0.0233
vn -0.8160 -0.5776 -0.0232
vn 0.5895 0.8060 0.0540
vn -0.6906 -0.7155 -0.1057
vn -0.6857 -0.6990 0.2029
vn -0.6857 -0.6991 0.2029
vn 0.8644 -0.4882 -0.1201
vn -0.3643 -0.0407 0.9304
vn -0.6078 0.7910 0.0704
vn -0.6078 0.7909 0.0704
vn -0.6079 0.7910 0.0696
vn -0.6995 0.7093 -0.0870
vn -0.6627 0.7126 0.2302
vn -0.6627 0.7127 0.2302
vn 0.7967 0.5982 -0.0859
vn 0.7967 0.5983 -0.0859
vn -0.1557 -0.0958 0.9831
vn -0.4205 -0.9073 0.0083
vn 0.7399 0.6653 -0.0999
vn 0.6601 0.7152 0.2296
vn 0.6601 0.7152 0.2297
vn -0.7063 0.7079 0.0092
vn -0.7062 0.7079 0.0092
vn -0.0250 -0.0423 0.9988
vn -0.0249 -0.0423 0.9988
vn -0.9986 0.0056 -0.0524
vn -0.9986 0.0056 -0.0525
vn 0.0036 0.9924 0.1227
vn 0.0036 0.9924 0.1229
vn 0.0035 0.9924 0.1227
vn 0.0028 0.9994 -0.0350
vn 0.0026 0.9994 -0.0352
vn 0.0024 0.9994 -0.0354
vn 0.5284 -0.8464 0.0658
vn 0.6940 -0.7173 -0.0624
vn 0.9770 0.0130 0.2129
vn 0.9982 0.0172 -0.0567
vn 0.6043 0.7923 -0.0844
vn 0.6044 0.7922 -0.0842
vn -0.0000 -0.9877 -0.1565
vn -0.0000 -0.9877 -0.1564
vn 0.0012 0.1976 -0.9803
vn -0.5809 0.8125 0.0487
vn -0.6474 -0.7558 0.0979
vn 0.0097 -0.1603 -0.9870
vn 0.0097 -0.1602 -0.9870
vn 0.0700 -0.0685 0.9952
vn -0.0694 0.0132 -0.9975
vn -0.0695 0.0132 -0.9975
vn 0.0273 0.0567 0.9980
vn 0.0050 0.9990 -0.0433
vn 0.0024 0.9987 -0.0517
vn 0.0026 0.9986 -0.0520
vn -0.9997 0.0038 -0.0224
vn 0.9997 -0.0063 -0.0223
vn -0.0008 -0.0569 -0.9984
vn 0.0899 -0.9953 0.0361
vn 0.6521 0.0317 -0.7575
vn 0.6521 0.0317 -0.7574
vn 0.6525 0.0313 -0.7571
vn 0.5707 -0.0047 -0.8211
vn 0.6782 0.0063 -0.7349
vn 0.0000 0.2420 -0.9703
vn -0.9956 0.0043 0.0932
vn -0.9956 0.0044 0.0931
vn 0.0916 0.9936 0.0666
vn 0.9998 -0.0002 -0.0207
vn 0.9998 -0.0007 -0.0209
vn 0.9998 -0.0011 -0.0212
vn 0.9998 -0.0006 -0.0209
vn 0.2181 0.0171 -0.9758
vn 0.0060 0.2704 0.9627
vn 0.0116 0.9488 -0.3158
vn -0.0185 0.1715 -0.9850
vn 0.0528 -0.9094 -0.4125
vn -0.7274 0.0105 -0.6861
vn -0.7274 0.0106 -0.6861
vn -0.7235 -0.0003 -0.6903
vn -0.2856 0.0110 -0.9583
vn -0.2858 0.0110 -0.9582
vn -0.9849 -0.0022 0.1729
vn 0.0529 0.9180 -0.3931
vn 0.9961 -0.0003 0.0883
vn 0.1563 0.0032 -0.9877
vn 0.1563 0.0031 -0.9877
vn 0.0075 -0.0102 0.9999
vn 0.3689 -0.3400 -0.8650
vn -0.0089 -0.0613 0.9981
vn 0.6787 -0.7315 -0.0650
vn 0.6787 -0.7315 -0.0651
vn -0.9918 -0.0090 0.1275
vn 0.1277 -0.0062 0.9918
vn 0.0116 -0.0094 0.9999
usemtl Material.002
s 1
f 1/1/1 2/2/1 3/3/2
f 3/3/2 4/4/1 1/1/1
f 5/5/3 4/4/4 3/3/5
f 3/3/5 6/6/3 5/5/3
f 7/7/6 8/8/7 9/9/8
f 9/9/8 10/10/9 7/7/6
f 1/1/10 10/10/10 11/11/10
f 10/12/11 1/13/12 12/14/11
f 10/12/11 12/14/11 13/15/11
f 10/12/11 13/15/11 14/16/11
f 14/16/11 15/17/11 10/12/11
f 16/18/13 17/19/13 15/17/13
f 15/17/13 14/16/13 16/18/13
f 17/20/14 7/21/14 10/22/14
f 10/22/14 15/23/14 17/20/14
f 13/15/15 12/14/15 18/24/15
f 18/24/15 19/25/15 13/15/15
f 14/16/16 13/15/16 19/25/16
f 19/25/16 16/18/16 14/16/16
f 12/26/17 1/27/17 4/28/17
f 4/28/17 18/29/17 12/26/17
f 18/24/18 4/30/18 7/31/19
f 18/24/18 7/31/19 17/19/18
f 18/24/18 17/19/18 16/18/18
f 16/18/18 19/25/18 18/24/18
f 20/32/20 21/33/20 22/34/20
f 22/34/20 23/35/20 20/32/20
f 21/36/21 24/37/21 25/38/21
f 25/38/21 22/39/21 21/36/21
f 26/40/22 21/33/22 20/32/22
f 20/32/22 27/41/22 26/40/22
f 28/42/23 29/43/24 30/44/23
f 30/44/23 31/45/23 28/42/23
f 32/46/25 22/39/25 25/38/25
f 25/38/25 33/47/25 32/46/25
f 34/48/26 35/49/26 36/50/26
f 36/50/26 37/51/26 34/48/26
f 38/52/27 39/53/28 40/54/29
f 40/54/29 41/55/27 38/52/27
f 42/56/30 43/57/31 24/37/31
f 24/37/31 44/58/31 42/56/30
f 45/59/32 46/60/33 47/61/32
f 47/61/32 48/62/34 45/59/32
f 49/63/35 40/64/36 29/65/36
f 29/65/36 50/66/36 49/63/35
f 42/56/37 44/58/37 26/67/37
f 26/67/37 51/68/37 42/56/37
f 51/69/38 26/40/38 27/41/38
f 27/41/38 52/70/38 51/69/38
f 51/68/39 53/71/40 43/57/41
f 43/57/41 42/56/40 51/68/39
f 44/58/42 24/37/43 21/36/42
f 21/36/42 26/67/42 44/58/42
f 52/70/44 54/72/44 53/73/44
f 53/73/44 51/69/44 52/70/44
f 41/55/45 32/46/45 33/47/45
f 33/47/45 38/52/45 41/55/45
f 55/74/46 56/75/47 32/76/47
f 32/76/47 41/77/46 55/74/46
f 56/75/48 23/35/48 22/34/48
f 22/34/48 32/76/48 56/75/48
f 33/47/49 25/38/49 39/53/49
f 39/53/49 38/52/49 33/47/49
f 41/77/50 40/64/51 49/63/52
f 49/63/52 55/74/50 41/77/50
f 37/51/53 28/42/53 31/45/53
f 31/45/53 34/48/53 37/51/53
f 28/78/54 37/79/55 57/80/55
f 57/80/55 58/81/54 28/78/54
f 37/79/56 36/82/56 59/83/57
f 59/83/57 57/80/57 37/79/56
f 31/45/58 30/44/58 35/49/58
f 35/49/58 34/48/58 31/45/58
f 58/81/59 50/66/59 29/65/59
f 29/65/59 28/78/59 58/81/59
f 60/84/60 48/85/60 61/86/60
f 61/86/60 62/87/60 60/84/60
f 63/88/61 45/59/62 48/62/62
f 48/62/62 60/89/62 63/88/61
f 48/85/63 47/90/63 64/91/63
f 64/91/63 61/86/64 48/85/63
f 61/86/65 64/91/66 65/92/66
f 65/92/66 62/87/66 61/86/65
f 40/54/67 39/53/67 30/44/68
f 30/44/68 29/43/68 40/54/67
f 47/61/69 46/60/69 59/83/69
f 47/61/69 59/83/69 36/82/69
f 47/61/69 36/82/69 66/93/70
f 66/93/70 67/94/71 47/61/69
f 35/49/72 68/95/73 66/96/74
f 66/96/74 36/50/73 35/49/72
f 63/88/75 60/89/75 69/97/75
f 69/97/75 70/98/75 63/88/75
f 69/99/76 60/84/76 62/87/76
f 62/87/76 65/92/76 69/99/76
f 69/97/77 53/73/77 54/72/77
f 54/72/77 70/98/77 69/97/77
f 43/57/78 53/71/78 69/99/78
f 69/99/78 65/92/78 43/57/78
f 45/100/79 63/101/80 71/102/80
f 71/102/80 72/103/80 45/100/79
f 27/104/81 56/105/82 73/106/82
f 73/106/82 74/107/81 27/104/81
f 72/103/83 3/108/83 2/109/83
f 2/109/83 75/110/83 72/103/83
f 76/111/84 58/112/84 57/113/84
f 57/113/84 75/110/84 76/111/84
f 73/106/85 56/105/85 55/114/85
f 55/114/85 77/115/85 73/106/85
f 73/106/86 9/116/86 8/117/86
f 8/117/86 74/107/87 73/106/86
f 9/116/88 77/115/88 73/106/88
f 76/111/89 2/109/89 9/116/90
f 9/116/90 77/115/90 76/111/89
f 78/118/91 68/95/91 79/119/91
f 79/119/91 80/120/91 78/118/91
f 78/118/92 80/120/92 81/121/92
f 81/121/92 82/122/92 78/118/92
f 67/123/93 79/119/93 64/91/94
f 64/91/94 47/90/93 67/123/93
f 82/122/95 66/96/95 68/95/95
f 68/95/95 78/118/95 82/122/95
f 80/120/96 79/119/96 67/123/96
f 67/123/96 81/121/96 80/120/96
f 81/121/97 67/123/97 66/96/97
f 66/96/97 82/122/97 81/121/97
f 83/124/98 84/125/98 85/126/98
f 85/126/98 86/127/98 83/124/98
f 84/128/99 8/8/100 7/7/101
f 7/7/101 85/129/99 84/128/99
f 6/6/102 3/3/102 8/8/102
f 8/8/102 84/128/102 6/6/102
f 85/129/103 7/7/103 4/4/103
f 4/4/103 5/5/103 85/129/103
f 71/102/104 3/108/104 72/103/104
f 86/127/105 85/126/105 5/130/106
f 5/130/106 87/131/105 86/127/105
f 87/132/107 5/133/107 6/134/107
f 6/134/107 88/135/107 87/132/107
f 88/136/108 6/137/109 84/125/110
f 84/125/110 83/124/111 88/136/108
f 88/138/112 83/139/112 86/140/112
f 86/140/112 87/141/112 88/138/112
f 57/142/113 59/143/113 46/144/113
f 46/144/113 45/145/113 57/142/113
f 45/100/114 72/103/114 75/110/114
f 75/110/114 57/113/114 45/100/114
f 75/110/115 2/109/115 76/111/115
f 11/146/116 89/147/116 90/148/116
f 11/11/117 10/10/118 9/9/117
f 9/9/117 89/149/118 11/11/117
f 91/150/119 2/2/119 1/1/119
f 1/1/119 11/11/119 91/150/119
f 89/149/120 9/9/121 2/2/121
f 2/2/121 91/150/121 89/149/120
f 89/147/122 91/151/122 90/148/122
f 91/151/123 11/146/123 90/148/123
f 71/102/124 63/101/124 52/152/124
f 52/152/124 92/153/124 71/102/124
f 92/153/125 8/117/125 3/108/126
f 3/108/126 71/102/126 92/153/125
f 63/154/127 70/155/127 54/156/127
f 54/156/127 52/157/127 63/154/127
f 74/107/128 8/117/128 92/153/128
f 27/158/129 20/159/129 23/160/129
f 23/160/129 56/161/129 27/158/129
f 92/153/130 52/152/130 27/104/131
f 27/104/131 74/107/130 92/153/130
f 76/111/132 77/115/132 55/114/132
f 55/114/132 58/112/132 76/111/132
f 55/162/133 49/163/133 50/164/133
f 50/164/133 58/165/133 55/162/133
f 30/44/134 39/53/134 25/38/134
f 30/44/134 25/38/134 24/37/134
f 30/44/134 24/37/134 43/57/134
f 30/44/134 43/57/134 65/92/134
f 30/44/134 65/92/134 64/91/134
f 30/44/134 64/91/134 79/119/134
f 30/44/134 79/119/134 68/95/134
f 68/95/134 35/49/134 30/44/134
