# Blender v2.79 (sub 0) OBJ File: ''
# www.blender.org
mtllib FLECHA.mtl
o Circle
v 0.000471 -0.628707 0.037937
v -0.040806 -0.628707 0.018994
v 0.000471 -0.628707 -0.037855
v -0.040806 -0.628707 -0.018912
v 0.041761 -0.628707 -0.018912
v 0.041761 -0.628707 0.018994
v 0.041761 0.590697 -0.018912
v 0.156066 0.553913 0.021912
v 0.041761 0.590697 0.018994
v 0.156066 0.553913 -0.021830
v 0.000471 0.590697 0.037937
v -0.044337 -0.477842 0.012500
v -0.044337 -0.572566 0.012500
v -0.040806 0.590697 0.018994
v 0.033870 -0.479734 0.014759
v 0.033870 -0.570675 0.014759
v 0.000471 0.590697 -0.037855
v -0.040806 0.590697 -0.018912
v 0.000471 0.601220 -0.043701
v 0.000471 0.707081 0.000041
v 0.000471 0.601220 0.043783
v -0.155123 0.553913 0.021912
v -0.155123 0.553913 -0.021830
v 0.041544 -0.570675 -0.013207
v 0.164534 -0.631456 0.014759
v 0.172208 -0.631456 -0.013207
v 0.041544 -0.479734 -0.013207
v -0.044337 -0.572566 -0.012418
v -0.169514 -0.537137 -0.012418
v -0.044337 -0.477842 -0.012418
v -0.169514 -0.631861 -0.012418
v -0.169514 -0.631861 0.012500
v -0.169514 -0.537137 0.012500
v 0.164534 -0.540514 0.014759
v 0.172208 -0.540514 -0.013207
vt 0.243490 0.142219
vt 0.252904 0.124906
vt 0.281123 0.142231
vt 0.271721 0.124912
vt 0.271709 0.159544
vt 0.252892 0.159538
vt 0.169353 0.336788
vt 0.225991 0.357056
vt 0.169353 0.355605
vt 0.225991 0.335337
vt 0.018546 0.000643
vt 0.000152 0.933756
vt 0.000152 0.000643
vt 0.018547 0.933756
vt 0.112107 0.000152
vt 0.101723 0.225396
vt 0.104258 0.084454
vt 0.102853 0.804933
vt 0.027924 0.240993
vt 0.026785 0.094991
vt 0.305283 0.000152
vt 0.285576 0.999848
vt 0.285576 0.000152
vt 0.305283 0.999848
vt 0.325294 0.000152
vt 0.305587 0.999848
vt 0.305587 0.000152
vt 0.325294 0.999848
vt 0.076247 0.000644
vt 0.032879 0.933942
vt 0.057839 0.000152
vt 0.051287 0.934434
vt 0.267082 0.124602
vt 0.198841 0.089617
vt 0.198841 0.000152
vt 0.168255 0.357360
vt 0.189097 0.366923
vt 0.112411 0.366923
vt 0.187955 0.357893
vt 0.264944 0.366391
vt 0.189401 0.357360
vt 0.266087 0.357360
vt 0.245245 0.366923
vt 0.133254 0.376790
vt 0.112411 0.367227
vt 0.189097 0.367227
vt 0.113554 0.376258
vt 0.190544 0.367760
vt 0.266087 0.376790
vt 0.189401 0.376790
vt 0.210244 0.367227
vt 0.169049 0.355605
vt 0.112411 0.335337
vt 0.169049 0.336788
vt 0.112411 0.357056
vt 0.238156 0.264111
vt 0.281170 0.200625
vt 0.281170 0.342556
vt 0.130601 0.124602
vt 0.112411 0.112732
vt 0.285272 0.112732
vt 0.116952 0.036181
vt 0.228876 0.197895
vt 0.243186 0.124906
vt 0.243186 0.200321
vt 0.230306 0.135187
vt 0.044421 0.241131
vt 0.049238 0.094653
vt 0.130385 0.276635
vt 0.175473 0.221711
vt 0.229106 0.271713
vt 0.123061 0.213901
vt 0.084913 0.084197
vt 0.076551 0.000152
vt 0.088341 0.225543
vt 0.090798 0.804976
vt 0.112411 0.200625
vt 0.181095 0.211301
vt 0.237851 0.261904
vt 0.183963 0.278050
vt 0.165172 0.335032
vt 0.112411 0.278050
vt 0.236724 0.335032
vt 0.112411 0.277746
vt 0.178950 0.128898
vt 0.187348 0.143700
vt 0.126069 0.200269
vt 0.112411 0.189597
vt 0.325598 0.049982
vt 0.380404 0.074707
vt 0.325598 0.124537
vt 0.380404 0.000152
vn 0.0000 -1.0000 0.0000
vn -0.3063 -0.9519 0.0000
vn 0.4174 0.0000 0.9087
vn 0.4173 0.0000 0.9088
vn -0.8790 -0.0000 0.4769
vn 0.4723 -0.0000 -0.8814
vn 0.4722 0.0000 -0.8815
vn 0.4723 -0.0000 -0.8815
vn -0.4171 0.0000 0.9089
vn -0.4171 -0.0000 -0.9089
vn 0.4174 -0.0000 -0.9087
vn 0.2389 0.3708 -0.8974
vn 0.2609 -0.9650 -0.0248
vn -0.2345 -0.6910 0.6837
vn 0.3024 -0.9478 -0.1012
vn -0.3723 -0.4507 0.8113
vn 0.0779 -0.6565 -0.7503
vn 0.2391 -0.9652 0.1057
vn 0.0248 -0.4855 -0.8739
vn 0.2461 -0.8074 0.5363
vn -0.2610 -0.9650 0.0250
vn 0.2344 -0.6910 -0.6838
vn -0.3024 -0.9478 0.1014
vn 0.3722 -0.4508 -0.8113
vn -0.0779 -0.6565 0.7503
vn -0.2391 -0.9652 -0.1059
vn -0.0248 -0.4855 0.8739
vn -0.2461 -0.8073 -0.5364
vn 0.3063 -0.9519 0.0000
vn 0.2389 0.3708 0.8974
vn -0.7015 0.7126 0.0000
vn 0.7015 0.7126 0.0000
vn -0.2389 0.3708 0.8974
vn -0.2389 0.3708 -0.8974
vn -0.4190 -0.9007 -0.1150
vn 1.0000 -0.0003 0.0046
vn 0.9659 -0.0080 0.2589
vn 1.0000 -0.0002 0.0000
vn 0.9643 -0.0082 0.2646
vn 0.9958 0.0474 0.0788
vn 0.9806 0.0979 0.1698
vn 0.9536 0.1488 0.2617
vn 1.0000 0.0037 0.0000
vn 0.9993 -0.0000 0.0380
vn 0.0000 -0.0000 -1.0000
vn -0.9980 -0.0628 0.0000
vn -0.8791 -0.0000 -0.4767
vn -1.0000 0.0033 0.0000
vn -1.0000 -0.0000 0.0000
vn -0.4281 0.9037 0.0000
vn -0.0000 0.0000 1.0000
vn 0.4281 -0.9037 0.0000
vn 0.9644 -0.0000 0.2646
vn 0.4190 0.9007 0.1150
usemtl None.002
s 1
f 1/1/1 2/2/1 3/3/1
f 2/2/1 4/4/1 3/3/1
f 3/3/1 5/5/1 6/6/1
f 6/6/1 1/1/1 3/3/1
f 7/7/2 8/8/2 9/9/2
f 7/7/2 10/10/2 8/8/2
f 6/11/3 11/12/3 1/13/4
f 6/11/3 9/14/3 11/12/3
f 2/15/5 12/16/5 13/17/5
f 2/15/5 14/18/5 12/16/5
f 6/11/6 15/19/7 9/14/7
f 6/11/6 16/20/8 15/19/7
f 1/21/9 14/22/9 2/23/9
f 1/21/9 11/24/9 14/22/9
f 4/25/10 17/26/10 3/27/10
f 4/25/10 18/28/10 17/26/10
f 3/29/11 7/30/11 5/31/11
f 3/29/11 17/32/11 7/30/11
f 10/33/12 19/34/12 20/35/12
f 14/36/13 21/37/14 22/38/15
f 14/36/13 11/39/16 21/37/14
f 17/40/17 23/41/18 19/42/19
f 17/40/17 18/43/20 23/41/18
f 7/44/21 19/45/22 10/46/23
f 7/44/21 17/47/24 19/45/22
f 11/48/25 8/49/26 21/50/27
f 11/48/25 9/51/28 8/49/26
f 14/52/29 23/53/29 18/54/29
f 14/52/29 22/55/29 23/53/29
f 21/56/30 8/57/30 20/58/30
f 23/59/31 22/60/31 20/35/31
f 8/61/32 10/33/32 20/35/32
f 22/60/33 21/62/33 20/35/33
f 19/34/34 23/59/34 20/35/34
f 24/63/35 25/64/35 16/65/35
f 24/63/35 26/66/35 25/64/35
f 9/14/36 27/67/37 7/30/38
f 9/14/36 15/19/39 27/67/37
f 6/11/40 24/68/41 16/20/42
f 6/11/40 5/31/43 24/68/41
f 5/31/44 27/67/44 24/68/44
f 5/31/44 7/30/44 27/67/44
f 28/69/45 29/70/45 30/71/45
f 28/69/45 31/72/45 29/70/45
f 2/15/46 28/73/46 4/74/46
f 2/15/46 13/17/46 28/73/46
f 4/74/47 30/75/47 18/76/47
f 4/74/47 28/73/47 30/75/47
f 18/76/48 12/16/48 14/18/48
f 18/76/48 30/75/48 12/16/48
f 32/77/49 29/70/49 31/72/49
f 32/77/49 33/78/49 29/70/49
f 30/71/50 33/78/50 12/79/50
f 30/71/50 29/70/50 33/78/50
f 13/80/51 33/81/51 32/82/51
f 13/80/51 12/83/51 33/81/51
f 13/84/52 31/72/52 28/69/52
f 13/84/52 32/77/52 31/72/52
f 26/66/53 34/85/53 25/64/53
f 26/66/53 35/86/53 34/85/53
f 24/63/45 35/86/45 26/66/45
f 24/63/45 27/87/45 35/86/45
f 27/87/54 34/85/54 35/86/54
f 27/87/54 15/88/54 34/85/54
f 16/89/51 34/90/51 15/91/51
f 16/89/51 25/92/51 34/90/51
