# Blender v2.79 (sub 0) OBJ File: ''
# www.blender.org
mtllib PICO.mtl
o Circle_Circle
v -0.044578 -0.467886 0.436881
v 0.044578 -0.467886 0.436881
v 0.089155 -0.408738 0.486511
v 0.044578 -0.349591 0.536142
v -0.044578 -0.349591 0.536142
v -0.089156 -0.408738 0.486511
v 0.089156 0.299824 -0.357920
v 0.044578 0.240677 -0.407551
v -0.044578 0.240677 -0.407551
v -0.089155 0.299824 -0.357920
v -0.044578 0.358972 -0.308290
v 0.044578 0.358972 -0.308289
v 0.044578 0.171256 -0.324818
v -0.044578 0.171256 -0.324818
v -0.044578 0.027836 -0.411981
v -0.044578 0.097257 -0.494713
v 0.044578 0.289551 -0.225557
v -0.044578 0.289551 -0.225557
v -0.044578 0.404085 -0.096271
v 0.044578 0.404085 -0.096271
v 0.000000 0.581818 0.100852
v -0.044578 0.473506 -0.179003
v 0.044578 0.473506 -0.179003
v 0.044578 0.027836 -0.411981
v 0.000000 -0.200415 -0.555519
v 0.044578 0.097257 -0.494713
vt 0.274171 0.811311
vt 0.333041 0.777322
vt 0.391911 0.811311
vt 0.391911 0.879289
vt 0.333041 0.913277
vt 0.274171 0.879289
vt 0.267565 0.809761
vt 0.267565 0.877738
vt 0.208695 0.911727
vt 0.149825 0.877738
vt 0.149824 0.809761
vt 0.208695 0.775772
vt 0.136408 0.757967
vt 0.136409 -0.000164
vt 0.204386 -0.000164
vt 0.204386 0.757967
vt 0.372288 0.352210
vt 0.244355 0.349032
vt 0.235136 0.263664
vt 0.368435 0.269594
vt 0.000205 0.758333
vt 0.000202 0.000203
vt 0.068181 0.000203
vt 0.068183 0.840678
vt 0.000205 0.840678
vt -0.000718 0.840678
vt -0.000720 0.000202
vt 0.067259 0.000202
vt 0.067259 0.758333
vt 0.067259 0.840678
vt 0.069271 0.756783
vt 0.069269 -0.001348
vt 0.137248 -0.001348
vt 0.137249 0.839128
vt 0.069272 0.839128
vt 0.136159 0.000203
vt 0.136160 0.758333
vt 0.136160 0.840678
vt 0.367254 0.671012
vt 0.236680 0.673917
vt 0.236429 0.602821
vt 0.368002 0.605868
vt 0.367254 0.672562
vt 0.368002 0.607419
vt 0.566958 0.641167
vt 0.204136 0.000203
vt 0.204138 0.758333
vt 0.361490 0.754787
vt 0.365704 0.672562
vt 0.565408 0.641167
vt 0.139012 0.919238
vt 0.007319 0.919238
vt 0.007319 0.851260
vt 0.139012 0.851260
vt 0.361491 0.753237
vt 0.225784 0.758315
vt 0.235130 0.673917
vt 0.365704 0.671012
vt 0.369552 0.605868
vt 0.237979 0.602821
vt 0.228884 0.517601
vt 0.365831 0.523270
vt 0.156713 0.994328
vt 0.146724 0.927088
vt 0.378038 0.927088
vt 0.369552 0.607419
vt 0.365831 0.524820
vt 0.568508 0.641167
vt 0.371484 0.415755
vt 0.372288 0.350660
vt 0.574285 0.384532
vt 0.369933 0.418856
vt 0.243040 0.421788
vt 0.242805 0.350582
vt 0.370738 0.353760
vt 0.008869 0.924293
vt 0.136832 0.924293
vt 0.136832 0.992271
vt 0.008869 0.992271
vt 0.365507 0.501068
vt 0.233484 0.506273
vt 0.368435 0.268044
vt 0.365507 0.499518
vt 0.369933 0.417306
vt 0.572735 0.386082
vt 0.392690 0.926084
vt 0.402558 0.993341
vt 0.168427 0.993341
vn -0.0000 -0.6428 0.7660
vn 0.0000 0.6428 -0.7660
vn -0.0000 -0.7660 -0.6428
vn -1.0000 0.0000 -0.0000
vn -0.8660 -0.3830 -0.3214
vn 0.8660 -0.3830 -0.3214
vn 0.8660 0.3830 0.3214
vn -0.8660 0.3830 0.3214
vn -0.0000 -0.7487 0.6629
vn -0.0000 -0.7485 0.6631
vn -0.0000 -0.7428 0.6695
vn -0.0000 -0.7427 0.6696
vn -0.0000 0.7660 0.6428
vn -0.9859 0.1281 0.1075
vn 0.0000 0.7485 -0.6631
vn 1.0000 -0.0000 0.0000
vn 0.0000 0.9326 -0.3609
vn 0.9859 0.1281 0.1075
vn -0.0000 -0.5323 0.8465
vn -0.0000 -0.5194 0.8546
vn 0.0000 0.5194 -0.8546
vn -0.9864 -0.1261 -0.1058
vn 0.9864 -0.1261 -0.1058
vn 0.0000 0.2001 -0.9798
usemtl None.003
s 1
f 1/1/1 2/2/1 3/3/1
f 1/1/1 3/3/1 4/4/1
f 1/1/1 4/4/1 5/5/1
f 5/5/1 6/6/1 1/1/1
f 7/7/2 8/8/2 9/9/2
f 7/7/2 9/9/2 10/10/2
f 7/7/2 10/10/2 11/11/2
f 11/11/2 12/12/2 7/7/2
f 13/13/3 2/14/3 1/15/3
f 1/15/3 14/16/3 13/13/3
f 15/17/4 14/18/4 9/19/4
f 9/19/4 16/20/4 15/17/4
f 14/21/5 1/22/5 6/23/5
f 14/21/5 6/23/5 10/24/5
f 10/24/5 9/25/5 14/21/5
f 7/26/6 3/27/6 2/28/6
f 7/26/6 2/28/6 13/29/6
f 13/29/6 8/30/6 7/26/6
f 17/31/7 4/32/7 3/33/7
f 17/31/7 3/33/7 7/34/7
f 7/34/7 12/35/7 17/31/7
f 10/24/8 6/23/8 5/36/8
f 10/24/8 5/36/8 18/37/8
f 18/37/8 11/38/8 10/24/8
f 19/39/9 18/40/10 17/41/10
f 17/41/10 20/42/11 19/39/9
f 19/43/9 20/44/11 21/45/12
f 18/37/13 5/36/13 4/46/13
f 4/46/13 17/47/13 18/37/13
f 22/48/14 19/49/14 21/50/14
f 23/51/15 12/52/15 11/53/15
f 11/53/15 22/54/15 23/51/15
f 22/55/4 11/56/4 18/57/4
f 18/57/4 19/58/4 22/55/4
f 20/59/16 17/60/16 12/61/16
f 12/61/16 23/62/16 20/59/16
f 23/63/17 22/64/17 21/65/17
f 20/66/18 23/67/18 21/68/18
f 24/69/19 15/70/19 25/71/19
f 24/72/20 13/73/20 14/74/20
f 14/74/20 15/75/20 24/72/20
f 16/76/21 9/77/21 8/78/21
f 8/78/21 26/79/21 16/76/21
f 26/80/16 8/81/16 13/73/16
f 13/73/16 24/72/16 26/80/16
f 15/70/22 16/82/22 25/71/22
f 26/83/23 24/84/23 25/85/23
f 16/86/24 26/87/24 25/88/24
