# Blender v2.79 (sub 0) OBJ File: ''
# www.blender.org
mtllib POCION1.mtl
o Circle.001_Circle.000
v 0.000000 0.000000 0.536113
v 0.000000 0.377727 0.352263
v -0.327121 0.188863 0.352263
v -0.327121 -0.188863 0.352263
v 0.000000 -0.377727 0.352263
v 0.327121 -0.188863 0.352263
v 0.327121 0.188863 0.352263
v 0.000000 0.464186 0.164314
v 0.401997 0.232093 0.164314
v 0.341975 0.197440 -0.049020
v 0.401997 -0.232093 0.164314
v 0.341975 -0.197440 -0.049020
v 0.000000 -0.464186 0.164314
v -0.401997 0.232093 0.164314
v -0.401997 -0.232093 0.164314
v 0.000000 0.259830 -0.229214
v 0.000000 0.394879 -0.049020
v 0.225019 0.129915 -0.229214
v 0.000000 -0.394879 -0.049020
v -0.341975 -0.197439 -0.049020
v -0.341975 0.197440 -0.049020
v 0.155286 0.089655 -0.424954
v 0.225019 -0.129915 -0.229214
v 0.155286 -0.089655 -0.424954
v 0.000000 -0.259830 -0.229214
v -0.225019 0.129915 -0.229214
v -0.225019 -0.129915 -0.229214
v 0.000000 -0.179309 -0.424954
v -0.155286 -0.089655 -0.424954
v -0.155286 0.089655 -0.424954
v 0.000000 0.179309 -0.424954
v 0.000000 -0.239039 -0.637559
v -0.207014 -0.119520 -0.637559
v -0.141985 0.081975 -0.641778
v -0.207014 0.119520 -0.637559
v 0.000000 0.239039 -0.637559
v 0.000000 0.163950 -0.641778
v 0.207014 0.119520 -0.637559
v 0.207014 -0.119520 -0.637559
v -0.188213 -0.108665 -0.783417
v -0.141985 -0.081975 -0.641778
v -0.188213 0.108665 -0.783417
v 0.141985 0.081975 -0.641778
v 0.141985 -0.081975 -0.641778
v 0.000000 -0.163950 -0.641778
v 0.000000 0.217330 -0.783417
v 0.188213 0.108665 -0.783417
v 0.188213 -0.108665 -0.783417
v 0.000000 -0.217330 -0.783417
vt 0.790360 0.723717
vt 0.572142 0.647612
vt 0.708954 0.566219
vt 0.819266 0.548236
vt 0.965895 0.583537
vt 0.246224 0.816151
vt 0.194944 0.636075
vt 0.310877 0.640296
vt 0.038683 0.689577
vt 0.459506 0.704658
vt 0.514110 0.606997
vt 0.318193 0.576770
vt 0.322384 0.499536
vt 0.186318 0.570366
vt 0.185433 0.497916
vt 0.000124 0.585537
vt 0.687955 0.505926
vt 0.514358 0.557623
vt 0.999876 0.486360
vt 0.815308 0.486112
vt 0.445631 0.374294
vt 0.497804 0.487386
vt 0.317841 0.405600
vt 0.970160 0.371256
vt 0.802586 0.413496
vt 0.672895 0.437825
vt 0.024278 0.476212
vt 0.514358 0.449570
vt 0.306260 0.297887
vt 0.196827 0.410259
vt 0.209288 0.308140
vt 0.077600 0.382745
vt 0.662932 0.347002
vt 0.545519 0.346972
vt 0.898325 0.274700
vt 0.779597 0.329200
vt 0.836820 0.187591
vt 0.751075 0.221395
vt 0.656436 0.247243
vt 0.395551 0.274723
vt 0.120223 0.289229
vt 0.566939 0.249989
vt 0.820495 0.087601
vt 0.721805 0.126415
vt 0.632528 0.117972
vt 0.635208 0.144736
vt 0.545209 0.151095
vt 0.556735 0.127748
vt 0.387624 0.171045
vt 0.291797 0.204670
vt 0.213308 0.206731
vt 0.125039 0.180642
vt 0.695275 0.026860
vt 0.713792 0.092316
vt 0.619197 0.047194
vt 0.287160 0.174290
vt 0.217124 0.183514
vt 0.788754 0.062140
vt 0.356608 0.145135
vt 0.146144 0.161959
vt 0.331247 0.079086
vt 0.274139 0.127008
vt 0.223784 0.130290
vt 0.165374 0.091084
vt 0.194480 0.000124
vt 0.285658 0.000124
vt 0.530436 0.069656
vt 0.780945 0.000124
vn -0.2450 0.4243 0.8718
vn -0.2450 -0.4243 0.8718
vn 0.4899 0.0000 0.8718
vn -0.4899 0.0000 0.8718
vn 0.2450 -0.4243 0.8718
vn 0.2450 0.4243 0.8718
vn 0.4645 0.8045 0.3701
vn 0.9626 0.0000 -0.2708
vn 0.4645 -0.8045 0.3701
vn -0.4645 0.8045 0.3701
vn 0.9290 0.0000 0.3701
vn -0.4645 -0.8045 0.3701
vn -0.9290 0.0000 0.3701
vn 0.4194 0.7264 -0.5444
vn -0.4813 -0.8337 -0.2708
vn -0.9626 0.0000 -0.2708
vn 0.4813 0.8337 -0.2708
vn 0.4813 -0.8337 -0.2708
vn -0.4813 0.8337 -0.2708
vn 0.9420 0.0000 -0.3356
vn 0.4194 -0.7264 -0.5444
vn -0.4194 0.7264 -0.5444
vn 0.8388 0.0000 -0.5444
vn -0.4194 -0.7264 -0.5444
vn -0.8388 0.0000 -0.5444
vn -0.4710 -0.8158 -0.3356
vn -0.9420 0.0000 -0.3356
vn 0.4710 0.8158 -0.3356
vn 0.4710 -0.8158 -0.3356
vn -0.4710 0.8158 -0.3356
vn -0.4858 -0.8415 0.2364
vn -0.0324 0.0561 -0.9979
vn -0.9717 0.0000 0.2364
vn 0.4858 0.8415 0.2364
vn 0.4858 -0.8415 0.2364
vn -0.4858 0.8415 0.2364
vn 0.9717 0.0000 0.2364
vn -0.9506 0.0000 0.3103
vn 0.0647 0.0000 -0.9979
vn -0.0324 -0.0561 -0.9979
vn -0.0647 0.0000 -0.9979
vn 0.0324 0.0561 -0.9979
vn 0.0324 -0.0561 -0.9979
vn 0.0000 0.0000 -1.0000
vn 0.4753 0.8233 0.3103
vn 0.4753 -0.8233 0.3103
vn -0.4753 0.8233 0.3103
vn 0.9506 0.0000 0.3103
vn -0.4753 -0.8233 0.3103
usemtl None.004
s 1
f 1/1/1 2/2/1 3/3/1
f 1/1/2 4/4/2 5/5/2
f 1/6/3 6/7/3 7/8/3
f 1/1/4 3/3/4 4/4/4
f 1/6/5 5/9/5 6/7/5
f 1/6/6 7/8/6 2/10/6
f 8/11/7 2/10/7 7/8/7
f 7/8/7 9/12/7 8/11/7
f 10/13/8 9/12/8 11/14/8
f 11/14/8 12/15/8 10/13/8
f 11/14/9 6/7/9 5/9/9
f 5/9/9 13/16/9 11/14/9
f 14/17/10 3/3/10 2/2/10
f 2/2/10 8/18/10 14/17/10
f 9/12/11 7/8/11 6/7/11
f 6/7/11 11/14/11 9/12/11
f 13/19/12 5/5/12 4/4/12
f 4/4/12 15/20/12 13/19/12
f 15/20/13 4/4/13 3/3/13
f 3/3/13 14/17/13 15/20/13
f 16/21/14 17/22/14 10/13/14
f 10/13/14 18/23/14 16/21/14
f 19/24/15 13/19/15 15/20/15
f 15/20/15 20/25/15 19/24/15
f 20/25/16 15/20/16 14/17/16
f 14/17/16 21/26/16 20/25/16
f 17/22/17 8/11/17 9/12/17
f 9/12/17 10/13/17 17/22/17
f 12/15/18 11/14/18 13/16/18
f 13/16/18 19/27/18 12/15/18
f 21/26/19 14/17/19 8/18/19
f 8/18/19 17/28/19 21/26/19
f 22/29/20 18/23/20 23/30/20
f 23/30/20 24/31/20 22/29/20
f 23/30/21 12/15/21 19/27/21
f 19/27/21 25/32/21 23/30/21
f 26/33/22 21/26/22 17/28/22
f 17/28/22 16/34/22 26/33/22
f 18/23/23 10/13/23 12/15/23
f 12/15/23 23/30/23 18/23/23
f 25/35/24 19/24/24 20/25/24
f 20/25/24 27/36/24 25/35/24
f 27/36/25 20/25/25 21/26/25
f 21/26/25 26/33/25 27/36/25
f 28/37/26 25/35/26 27/36/26
f 27/36/26 29/38/26 28/37/26
f 29/38/27 27/36/27 26/33/27
f 26/33/27 30/39/27 29/38/27
f 31/40/28 16/21/28 18/23/28
f 18/23/28 22/29/28 31/40/28
f 24/31/29 23/30/29 25/32/29
f 25/32/29 28/41/29 24/31/29
f 30/39/30 26/33/30 16/34/30
f 16/34/30 31/42/30 30/39/30
f 32/43/31 28/37/31 29/38/31
f 29/38/31 33/44/31 32/43/31
f 34/45/32 35/46/32 36/47/32
f 36/47/32 37/48/32 34/45/32
f 33/44/33 29/38/33 30/39/33
f 30/39/33 35/46/33 33/44/33
f 36/49/34 31/40/34 22/29/34
f 22/29/34 38/50/34 36/49/34
f 39/51/35 24/31/35 28/41/35
f 28/41/35 32/52/35 39/51/35
f 35/46/36 30/39/36 31/42/36
f 31/42/36 36/47/36 35/46/36
f 38/50/37 22/29/37 24/31/37
f 24/31/37 39/51/37 38/50/37
f 40/53/38 41/54/38 34/45/38
f 34/45/38 42/55/38 40/53/38
f 43/56/39 38/50/39 39/51/39
f 39/51/39 44/57/39 43/56/39
f 45/58/40 32/43/40 33/44/40
f 33/44/40 41/54/40 45/58/40
f 41/54/41 33/44/41 35/46/41
f 35/46/41 34/45/41 41/54/41
f 37/59/42 36/49/42 38/50/42
f 38/50/42 43/56/42 37/59/42
f 44/57/43 39/51/43 32/52/43
f 32/52/43 45/60/43 44/57/43
f 46/61/44 47/62/44 48/63/44
f 46/61/44 48/63/44 49/64/44
f 46/61/44 49/64/44 40/65/44
f 40/65/44 42/66/44 46/61/44
f 46/61/45 37/59/45 43/56/45
f 43/56/45 47/62/45 46/61/45
f 48/63/46 44/57/46 45/60/46
f 45/60/46 49/64/46 48/63/46
f 42/55/47 34/45/47 37/48/47
f 37/48/47 46/67/47 42/55/47
f 47/62/48 43/56/48 44/57/48
f 44/57/48 48/63/48 47/62/48
f 49/68/49 45/58/49 41/54/49
f 41/54/49 40/53/49 49/68/49
